# xmcd
#
# Track frame offsets: 
#        151
#        2052
#        14580
#        29430
#        45423
#        58766
#        72924
#        85225
#        101096
#        118025
#        130261
#        147988
#        169548
#        185482
#        201343
#        216647
#        232812
#
# Disc length: 3286 seconds
#
# Revision: 0
# Processed by: cddbd v1.5.2PL0 Copyright (c) Steve Scherf et al.
# Submitted via: ExactAudioCopy v0.95b1
#
DISCID=f50cd411
DTITLE=The Bosshoss - Rodeo radio
DYEAR=1900
DGENRE=country
TTITLE0=Intro
TTITLE1=Rodeo radio
TTITLE2=Ring ring ring
TTITLE3=My favorite game
TTITLE4=I say a little prayer
TTITLE5=I'm on a high
TTITLE6=Hell yeah
TTITLE7=Hot stuff
TTITLE8=Rodeo queen
TTITLE9=It's not unusual
TTITLE10=Shake a leg
TTITLE11=Mary marry me
TTITLE12=Jesus built my hotrod
TTITLE13=Upside down
TTITLE14=Ca plane pour moi
TTITLE15=You'll never walk alone
TTITLE16=Outro
EXTD=
EXTT0=
EXTT1=
EXTT2=
EXTT3=
EXTT4=
EXTT5=
EXTT6=
EXTT7=
EXTT8=
EXTT9=
EXTT10=
EXTT11=
EXTT12=
EXTT13=
EXTT14=
EXTT15=
EXTT16=
PLAYORDER=
